<?xml version="1.0" encoding="utf-8"?>
<!-- Generator: Adobe Illustrator 19.0.0, SVG Export Plug-In . SVG Version: 6.00 Build 0)  -->
<svg version="1.1" id="Camada_1" xmlns="http://www.w3.org/2000/svg" xmlns:xlink="http://www.w3.org/1999/xlink" x="0px" y="0px"
	 viewBox="0 0 216.8 31.7" style="enable-background:new 0 0 216.8 31.7;" xml:space="preserve">
<g>
	<path style="fill:#FFFFFF;" d="M131.4,3c2.3,0,4.3,1.9,4.3,4.2c0,2.4-2,4.3-4.3,4.2c-2.3,0-4.3-1.9-4.3-4.2
		C127.1,4.9,129.1,2.9,131.4,3 M131.4,3.9c-1.9,0-3.3,1.4-3.3,3.3c0,1.9,1.4,3.4,3.3,3.4c1.8,0,3.3-1.5,3.3-3.4
		C134.7,5.4,133.2,3.8,131.4,3.9"/>
	<path style="fill:#FFFFFF;" d="M140.8,11.3h-3.4V3.1h2.8c0.7,0,1.3,0.2,1.7,0.6c0.4,0.4,0.6,0.9,0.6,1.5c0,0.7-0.3,1.2-0.8,1.6
		c1,0.3,1.6,1.1,1.6,2.2C143.4,10.3,142.4,11.3,140.8,11.3 M138.4,4v2.6h1.8c0.9,0,1.4-0.5,1.4-1.3c0-0.8-0.5-1.3-1.4-1.3H138.4z
		 M140.7,7.4h-2.3v3h2.3c1.1,0,1.7-0.6,1.7-1.5C142.4,8,141.8,7.4,140.7,7.4"/>
	<path style="fill:#FFFFFF;" d="M145.2,9.2c0.6,0.9,1.4,1.4,2.3,1.4c1,0,1.7-0.5,1.7-1.4c0-0.7-0.4-1-1.4-1.4l-0.9-0.4
		c-1.1-0.5-1.9-1.1-1.9-2.2c0-1.3,1.1-2.1,2.5-2.1c1.1,0,2,0.6,2.6,1.4l-0.7,0.5c-0.4-0.7-1.1-1-1.9-1c-0.8,0-1.5,0.4-1.5,1.2
		c0,0.2,0,0.4,0.2,0.6c0.2,0.3,0.5,0.5,1.2,0.8l0.9,0.4c1.3,0.6,1.9,1.2,1.9,2.3c0,1.4-1.1,2.3-2.7,2.3c-1.3,0-2.4-0.7-3-1.8
		L145.2,9.2z"/>
	<polygon style="fill:#FFFFFF;" points="152,3.1 157.3,3.1 157.3,4 153,4 153,6.5 156.3,6.5 156.3,7.4 153,7.4 153,10.5 157.4,10.5 
		157.4,11.3 152,11.3 	"/>
	<path style="fill:#FFFFFF;" d="M164.4,11.3l-2.6-3.4h-1.8v3.4h-1V3.1h2.9c1.6,0,2.6,1,2.6,2.4c0,1.1-0.6,2-1.7,2.3l2.6,3.6H164.4z
		 M160.1,7h1.9c1.1,0,1.7-0.6,1.7-1.5c0-0.9-0.6-1.5-1.7-1.5h-1.9V7z"/>
	<polygon style="fill:#FFFFFF;" points="173.1,3.1 169.6,11.5 169.2,11.5 165.6,3.1 166.7,3.1 169.4,9.6 172.1,3.1 	"/>
	<path style="fill:#FFFFFF;" d="M178.7,9.7h-4l-0.7,1.7h-1l3.6-8.4h0.4l3.6,8.4h-1L178.7,9.7z M176.6,4.7l-1.6,4h3.3L176.6,4.7z"/>
	<polygon style="fill:#FFFFFF;" points="183,4 180.1,4 180.1,3.1 186.8,3.1 186.8,4 183.9,4 183.9,11.3 183,11.3 	"/>
	<path style="fill:#FFFFFF;" d="M191.7,3c2.3,0,4.3,1.9,4.3,4.2c0,2.4-2,4.3-4.3,4.2c-2.3,0-4.3-1.9-4.3-4.2
		C187.4,4.9,189.4,2.9,191.7,3 M191.7,3.9c-1.9,0-3.3,1.4-3.3,3.3c0,1.9,1.4,3.4,3.3,3.4c1.8,0,3.3-1.5,3.3-3.4
		C195,5.4,193.5,3.8,191.7,3.9 M192.4,0h1.2v0.2l-1.5,2.1h-0.7L192.4,0z"/>
	<path style="fill:#FFFFFF;" d="M203,11.3l-2.6-3.4h-1.8v3.4h-1V3.1h2.9c1.6,0,2.6,1,2.6,2.4c0,1.1-0.6,2-1.7,2.3l2.6,3.6H203z
		 M198.7,7h1.9c1.1,0,1.7-0.6,1.7-1.5c0-0.9-0.6-1.5-1.7-1.5h-1.9V7z"/>
	<rect x="205.5" y="3.1" style="fill:#FFFFFF;" width="1" height="8.2"/>
	<path style="fill:#FFFFFF;" d="M212.4,3c2.3,0,4.3,1.9,4.3,4.2c0,2.4-2,4.3-4.3,4.2c-2.3,0-4.3-1.9-4.3-4.2
		C208.1,4.9,210.1,2.9,212.4,3 M212.4,3.9c-1.9,0-3.3,1.4-3.3,3.3c0,1.9,1.4,3.4,3.3,3.4c1.8,0,3.3-1.5,3.3-3.4
		C215.7,5.4,214.2,3.8,212.4,3.9"/>
	<polygon style="fill:#FFFFFF;" points="127.4,15.4 132.3,15.4 132.3,17 129.3,17 129.3,18 131.4,18 131.4,19.5 129.3,19.5 
		129.3,20.8 132.4,20.8 132.4,22.4 127.4,22.4 	"/>
	<path style="fill:#FFFFFF;" d="M133.6,15.4h2.8c1.6,0,2.7,1,2.7,2.4c0,1.4-1.2,2.4-2.7,2.4h-0.9v2.2h-1.8V15.4z M136.3,18.6
		c0.5,0,0.8-0.3,0.8-0.8c0-0.5-0.3-0.8-0.8-0.8h-0.9v1.7H136.3z"/>
	<rect x="140" y="15.4" style="fill:#FFFFFF;" width="1.8" height="7"/>
	<path style="fill:#FFFFFF;" d="M143.3,15.4h2.5c2.2,0,3.9,1.4,3.8,3.5c0,2.1-1.7,3.6-3.8,3.5h-2.5V15.4z M145.7,20.8
		c1.2,0,2-0.7,2-1.9c0-1.2-0.8-1.8-2-1.8h-0.6v3.7H145.7z"/>
	<polygon style="fill:#FFFFFF;" points="150.6,15.4 155.5,15.4 155.5,17 152.5,17 152.5,18 154.6,18 154.6,19.5 152.5,19.5 
		152.5,20.8 155.6,20.8 155.6,22.4 150.6,22.4 	"/>
	<polygon style="fill:#FFFFFF;" points="163.9,15.3 163.9,22.4 162.1,22.4 162.1,19.5 160.6,21.2 160.1,21.2 158.6,19.5 158.6,22.4 
		156.8,22.4 156.8,15.3 157.4,15.3 160.4,18.9 163.3,15.3 	"/>
	<rect x="165.3" y="15.4" style="fill:#FFFFFF;" width="1.8" height="7"/>
	<path style="fill:#FFFFFF;" d="M172,15.3c2,0,3.8,1.6,3.8,3.6c0,2-1.8,3.7-3.8,3.6c-2.1,0-3.8-1.6-3.8-3.6
		C168.2,16.9,170,15.2,172,15.3 M172,16.9c-1.1,0-1.9,0.8-1.9,2c0,0.6,0.2,1.1,0.5,1.4c0.4,0.4,0.8,0.5,1.4,0.5c1.1,0,1.9-0.8,1.9-2
		C173.9,17.7,173.1,16.9,172,16.9"/>
	<polygon style="fill:#FFFFFF;" points="176.9,15.4 178.7,15.4 178.7,20.8 181.6,20.8 181.6,22.4 176.9,22.4 	"/>
	<path style="fill:#FFFFFF;" d="M185.8,15.3c2,0,3.8,1.6,3.8,3.6c0,2-1.8,3.7-3.8,3.6c-2.1,0-3.8-1.6-3.8-3.6
		C182,16.9,183.8,15.2,185.8,15.3 M185.8,16.9c-1.1,0-1.9,0.8-1.9,2c0,0.6,0.2,1.1,0.5,1.4c0.4,0.4,0.8,0.5,1.4,0.5
		c1.1,0,1.9-0.8,1.9-2C187.8,17.7,186.9,16.9,185.8,16.9 M185.8,12.7h2.2V13l-1.6,1.7h-1.3L185.8,12.7z"/>
	<path style="fill:#FFFFFF;" d="M194.1,15.3c1.3,0,2.3,0.6,3,1.6l-1.3,1.1c-0.5-0.6-1-1-1.8-1c-1.2,0-1.9,0.8-1.9,2c0,1.2,0.8,2,2,2
		c0.7,0,1.2-0.2,1.5-0.6V20h-1.6v-1.6h3.5v2.2c-0.3,0.6-0.8,1.1-1.4,1.4c-0.6,0.4-1.3,0.5-2,0.5c-2.1,0-3.9-1.6-3.8-3.6
		C190.3,16.9,192,15.2,194.1,15.3"/>
	<rect x="198.6" y="15.4" style="fill:#FFFFFF;" width="1.8" height="7"/>
	<path style="fill:#FFFFFF;" d="M205.3,15.3c1.4,0,2.6,0.7,3.2,1.9l-1.4,0.9c-0.5-0.8-1.1-1.2-1.8-1.2c-1.1,0-1.9,0.8-1.9,2
		c0,0.6,0.2,1.1,0.5,1.4c0.4,0.4,0.8,0.5,1.4,0.5c0.8,0,1.4-0.4,1.8-1.2l1.4,0.9c-0.6,1.2-1.8,1.9-3.2,1.9c-2.1,0-3.8-1.6-3.8-3.6
		C201.5,16.9,203.2,15.2,205.3,15.3"/>
	<path style="fill:#FFFFFF;" d="M213,15.3c2,0,3.8,1.6,3.8,3.6c0,2-1.8,3.7-3.8,3.6c-2.1,0-3.8-1.6-3.8-3.6
		C209.1,16.9,210.9,15.2,213,15.3 M213,16.9c-1.1,0-1.9,0.8-1.9,2c0,0.6,0.2,1.1,0.5,1.4c0.4,0.4,0.8,0.5,1.4,0.5
		c1.1,0,1.9-0.8,1.9-2C214.9,17.7,214.1,16.9,213,16.9"/>
	<path style="fill:#FFFFFF;" d="M127.3,25.5h1.2c1.4,0,2.2,0.8,2.2,2c0,1.2-0.9,2.1-2.2,2.1h-1.2V25.5z M128.5,29.2
		c1.1,0,1.7-0.7,1.7-1.6c0-0.9-0.6-1.6-1.7-1.6h-0.7v3.2H128.5z"/>
	<path style="fill:#FFFFFF;" d="M134,28.8h-2l-0.3,0.8h-0.5l1.8-4.2h0.2l1.8,4.2h-0.5L134,28.8z M133,26.3l-0.8,2h1.6L133,26.3z"/>
	<path style="fill:#FFFFFF;" d="M138.9,25.5c0.7,0,1.4,0.3,1.7,0.9l-0.4,0.3c-0.3-0.5-0.8-0.7-1.3-0.7c-0.9,0-1.6,0.7-1.6,1.7
		c0,0.9,0.7,1.7,1.6,1.7c0.6,0,1-0.3,1.3-0.7l0.4,0.3c-0.3,0.5-1,0.9-1.7,0.9c-1.2,0-2.2-0.9-2.1-2.1
		C136.8,26.4,137.8,25.4,138.9,25.5"/>
	<rect x="141.5" y="25.5" style="fill:#FFFFFF;" width="0.5" height="4.1"/>
	<path style="fill:#FFFFFF;" d="M143.1,25.5h1.2c1.4,0,2.2,0.8,2.2,2c0,1.2-0.9,2.1-2.2,2.1h-1.2V25.5z M144.3,29.2
		c1.1,0,1.7-0.7,1.7-1.6c0-0.9-0.6-1.6-1.7-1.6h-0.7v3.2H144.3z"/>
	<path style="fill:#FFFFFF;" d="M149.8,28.8h-2l-0.3,0.8h-0.5l1.8-4.2h0.2l1.8,4.2h-0.5L149.8,28.8z M148.8,26.3l-0.8,2h1.6
		L148.8,26.3z"/>
	<path style="fill:#FFFFFF;" d="M151.4,25.5h1.2c1.4,0,2.2,0.8,2.2,2c0,1.2-0.9,2.1-2.2,2.1h-1.2V25.5z M152.6,29.2
		c1.1,0,1.7-0.7,1.7-1.6c0-0.9-0.6-1.6-1.7-1.6h-0.7v3.2H152.6z"/>
	<polygon style="fill:#FFFFFF;" points="155.7,25.5 158.4,25.5 158.4,26 156.2,26 156.2,27.2 157.9,27.2 157.9,27.7 156.2,27.7 
		156.2,29.2 158.4,29.2 158.4,29.6 155.7,29.6 	"/>
	<path style="fill:#FFFFFF;" d="M161,25.5h1.2c1.4,0,2.2,0.8,2.2,2c0,1.2-0.9,2.1-2.2,2.1H161V25.5z M162.2,29.2
		c1.1,0,1.7-0.7,1.7-1.6c0-0.9-0.6-1.6-1.7-1.6h-0.7v3.2H162.2z"/>
	<path style="fill:#FFFFFF;" d="M167.1,25.5c1.1,0,2.2,0.9,2.1,2.1c0,1.2-1,2.1-2.1,2.1c-1.2,0-2.1-1-2.1-2.1
		C165,26.4,166,25.4,167.1,25.5 M167.1,25.9c-0.9,0-1.6,0.7-1.6,1.7c0,0.9,0.7,1.7,1.6,1.7c0.9,0,1.6-0.7,1.6-1.7
		C168.8,26.6,168,25.9,167.1,25.9"/>
	<path style="fill:#FFFFFF;" d="M174.5,29.6l-1.3-1.7h-0.9v1.7h-0.5v-4.1h1.4c0.8,0,1.3,0.5,1.3,1.2c0,0.6-0.3,1-0.9,1.1l1.3,1.8
		H174.5z M172.3,27.5h0.9c0.5,0,0.8-0.3,0.8-0.7c0-0.4-0.3-0.8-0.8-0.8h-0.9V27.5z"/>
	<rect x="175.7" y="25.5" style="fill:#FFFFFF;" width="0.5" height="4.1"/>
	<path style="fill:#FFFFFF;" d="M179.2,25.5c1.1,0,2.2,0.9,2.1,2.1c0,1.2-1,2.1-2.1,2.1c-1.2,0-2.1-1-2.1-2.1
		C177,26.4,178,25.4,179.2,25.5 M179.2,25.9c-0.9,0-1.6,0.7-1.6,1.7c0,0.9,0.7,1.7,1.6,1.7c0.9,0,1.6-0.7,1.6-1.7
		C180.8,26.6,180.1,25.9,179.2,25.9"/>
	<path style="fill:#FFFFFF;" d="M183.9,25.5h1.2c1.4,0,2.2,0.8,2.2,2c0,1.2-0.9,2.1-2.2,2.1h-1.2V25.5z M185.1,29.2
		c1.1,0,1.7-0.7,1.7-1.6c0-0.9-0.6-1.6-1.7-1.6h-0.7v3.2H185.1z"/>
	<polygon style="fill:#FFFFFF;" points="188.2,25.5 190.8,25.5 190.8,26 188.7,26 188.7,27.2 190.3,27.2 190.3,27.7 188.7,27.7 
		188.7,29.2 190.9,29.2 190.9,29.6 188.2,29.6 	"/>
	<path style="fill:#FFFFFF;" d="M192.9,29.2c0.2,0,0.3,0,0.4,0c0.4,0,0.7-0.1,0.7-0.6v-3.1h0.5v3.1c0,0.7-0.4,1-1.1,1
		c-0.2,0-0.3,0-0.5-0.1V29.2z"/>
	<path style="fill:#FFFFFF;" d="M197.9,28.8h-2l-0.3,0.8H195l1.8-4.2h0.2l1.8,4.2h-0.5L197.9,28.8z M196.9,26.3l-0.8,2h1.6
		L196.9,26.3z"/>
	<polygon style="fill:#FFFFFF;" points="202.8,25.5 202.8,29.7 202.6,29.7 200,26.6 200,29.6 199.5,29.6 199.5,25.5 199.7,25.5 
		202.3,28.6 202.3,25.5 	"/>
	<polygon style="fill:#FFFFFF;" points="203.9,25.5 206.5,25.5 206.5,26 204.4,26 204.4,27.2 206,27.2 206,27.7 204.4,27.7 
		204.4,29.2 206.6,29.2 206.6,29.6 203.9,29.6 	"/>
	<rect x="207.4" y="25.5" style="fill:#FFFFFF;" width="0.5" height="4.1"/>
	<path style="fill:#FFFFFF;" d="M211.6,29.6l-1.3-1.7h-0.9v1.7H209v-4.1h1.4c0.8,0,1.3,0.5,1.3,1.2c0,0.6-0.3,1-0.9,1.1l1.3,1.8
		H211.6z M209.5,27.5h0.9c0.5,0,0.8-0.3,0.8-0.7c0-0.4-0.3-0.8-0.8-0.8h-0.9V27.5z"/>
	<path style="fill:#FFFFFF;" d="M214.6,25.5c1.1,0,2.2,0.9,2.1,2.1c0,1.2-1,2.1-2.1,2.1c-1.2,0-2.1-1-2.1-2.1
		C212.5,26.4,213.5,25.4,214.6,25.5 M214.6,25.9c-0.9,0-1.6,0.7-1.6,1.7c0,0.9,0.7,1.7,1.6,1.7c0.9,0,1.6-0.7,1.6-1.7
		C216.3,26.6,215.5,25.9,214.6,25.9"/>
	<polygon style="fill:#FFFFFF;" points="21.2,10.8 5.9,10.8 5.9,13.7 20.3,13.7 20.3,17.8 5.9,17.8 5.9,20.8 21.4,20.8 21.4,25.5 
		0,25.5 0,6.1 21.2,6.1 	"/>
	<path style="fill:#FFFFFF;" d="M29.7,23v7.1h-4.9V11.8h4.9v2.5c0.1-1,0.6-1.7,1.5-2.1c0.9-0.4,2.4-0.6,4.6-0.6c2.7,0,4.5,0.3,5.6,1
		c1.1,0.7,1.6,1.9,1.6,3.5v4.5c0,1.7-0.6,2.9-1.7,3.6c-1.1,0.8-2.9,1.1-5.5,1.1c-2.1,0-3.6-0.2-4.5-0.5C30.5,24.5,30,23.9,29.7,23
		 M32.7,15.4c-1.1,0-1.9,0.2-2.4,0.5c-0.5,0.3-0.7,0.9-0.7,1.8v1.7c0,0.9,0.2,1.5,0.7,1.9c0.4,0.3,1.3,0.5,2.5,0.5H35
		c1.1,0,1.9-0.2,2.4-0.5c0.5-0.4,0.7-0.9,0.7-1.8v-1.7c0-0.8-0.2-1.4-0.7-1.8c-0.5-0.4-1.3-0.5-2.4-0.5H32.7z"/>
	<path style="fill:#FFFFFF;" d="M51.5,10.1h-4.9v-4h4.9V10.1z M51.5,25.5h-4.9V11.8h4.9V25.5z"/>
	<path style="fill:#FFFFFF;" d="M58.3,25.5h-2.4V6.1h13.8c3.1,0,5.1,0.3,6.1,1c1,0.7,1.5,1.9,1.5,3.6V13c0,1.2-0.2,2.1-0.7,2.6
		c-0.5,0.6-1.4,1-2.7,1.2c1.1,0.1,1.9,0.5,2.4,1.1c0.5,0.6,0.8,1.5,0.8,2.6v4.8h-2.4v-4.3c0-1.3-0.3-2.1-0.8-2.6
		c-0.6-0.5-1.8-0.7-3.9-0.7H58.3V25.5z M70.5,8.2H58.3v7.4h12.2c1.7,0,2.9-0.2,3.5-0.6c0.6-0.4,0.9-1.3,0.9-2.6v-0.9
		c0-1.3-0.3-2.2-0.9-2.6C73.4,8.4,72.2,8.2,70.5,8.2"/>
	<path style="fill:#FFFFFF;" d="M81.4,6.1h2.2v2.6h-2.2V6.1z M81.4,11.8h2.2v13.7h-2.2V11.8z"/>
	<path style="fill:#FFFFFF;" d="M94.2,25.7c-2.4,0-4-0.5-5.1-1.4c-1-0.9-1.5-2.5-1.5-4.7v-2.1c0-2.1,0.5-3.6,1.5-4.5
		c1-0.9,2.7-1.4,5-1.4h4.7c2.3,0,4,0.5,5,1.4c1,0.9,1.5,2.4,1.5,4.5v2.1c0,2.2-0.5,3.7-1.5,4.7c-1,0.9-2.7,1.4-5.1,1.4H94.2z
		 M94.7,23.6h3.6c2,0,3.3-0.3,4-0.9c0.7-0.6,1-1.7,1-3.4v-1.6c0-1.6-0.3-2.7-1-3.3c-0.7-0.6-2-0.9-4-0.9h-3.6c-2,0-3.3,0.3-4,0.9
		c-0.7,0.6-1,1.7-1,3.3v1.6c0,1.7,0.3,2.8,1,3.4S92.7,23.6,94.7,23.6"/>
	<rect x="114.9" y="2.5" style="fill:#00AFC0;" width="2.7" height="29.3"/>
</g>
<g id="XMLID_40_">
</g>
<g id="XMLID_41_">
</g>
<g id="XMLID_42_">
</g>
<g id="XMLID_43_">
</g>
<g id="XMLID_44_">
</g>
<g id="XMLID_45_">
</g>
<g id="XMLID_46_">
</g>
<g id="XMLID_47_">
</g>
<g id="XMLID_48_">
</g>
<g id="XMLID_49_">
</g>
<g id="XMLID_50_">
</g>
<g id="XMLID_51_">
</g>
<g id="XMLID_52_">
</g>
<g id="XMLID_53_">
</g>
<g id="XMLID_54_">
</g>
</svg>
